<svg width="20" height="20" viewBox="0 0 20 20" fill="none" xmlns="http://www.w3.org/2000/svg">
<g clip-path="url(#clip0_3_37)">
<path d="M20 10.0612C20 4.50375 15.5225 -0.00125122 10 -0.00125122C4.475 -1.22061e-06 -0.00250244 4.50375 -0.00250244 10.0625C-0.00250244 15.0837 3.655 19.2462 8.435 20.0012V12.97H5.8975V10.0625H8.4375V7.84375C8.4375 5.3225 9.93125 3.93 12.215 3.93C13.31 3.93 14.4537 4.12625 14.4537 4.12625V6.60125H13.1925C11.9512 6.60125 11.5637 7.3775 11.5637 8.17375V10.0612H14.3362L13.8937 12.9687H11.5625V20C16.3425 19.245 20 15.0825 20 10.0612Z" fill="white"/>
</g>
<defs>
<clipPath id="clip0_3_37">
<rect width="20" height="20" fill="white"/>
</clipPath>
</defs>
</svg>
